<?xml version="1.0" standalone="no"?><!DOCTYPE svg PUBLIC "-//W3C//DTD SVG 1.1//EN" "http://www.w3.org/Graphics/SVG/1.1/DTD/svg11.dtd"><svg t="1564704772059" class="icon" viewBox="0 0 1181 1024" version="1.1" xmlns="http://www.w3.org/2000/svg" p-id="4920" xmlns:xlink="http://www.w3.org/1999/xlink" width="230.6640625" height="200"><defs><style type="text/css"></style></defs><path d="M1122.461538 925.538462H59.076923a39.384615 39.384615 0 0 1-31.901538-62.424616L152.221538 708.923077l127.606154-157.538462 82.51077-101.80923c7.404308-10.24 19.259077-16.305231 31.901538-16.344616h393.058462c12.642462 0.039385 24.497231 6.104615 31.901538 16.344616L901.710769 551.384615l127.606154 157.538462 125.046154 154.190769A39.384615 39.384615 0 0 1 1122.461538 925.538462z" fill="#0377BC" p-id="4921"></path><path d="M1063.384615 925.538462H59.076923a39.384615 39.384615 0 0 1-31.901538-62.424616L152.221538 708.923077l127.606154-157.538462 82.51077-101.80923c7.404308-10.24 19.259077-16.305231 31.901538-16.344616h333.981538c12.642462 0.039385 24.497231 6.104615 31.901539 16.344616L842.633846 551.384615l127.606154 157.538462 125.046154 154.190769A39.384615 39.384615 0 0 1 1063.384615 925.538462z" fill="#02A9F4" p-id="4922"></path><path d="M486.793846 551.384615l-39.187692 157.538462h-295.384616l127.606154-157.538462z" fill="#3F51B5" p-id="4923"></path><path d="M1029.316923 708.923077h-295.384615l-39.187693-157.538462h206.966154z" fill="#283593" p-id="4924"></path><path d="M984.418462 708.923077H733.932308l-39.187693-157.538462h162.067693zM694.744615 551.384615H486.793846l29.341539-118.153846h149.267692zM787.692308 925.538462H393.846154l53.76-216.615385h286.326154z" fill="#3F51B5" p-id="4925"></path><path d="M776.664615 516.135385l-86.843077 33.476923c-5.080615-12.622769-35.820308-1.851077-45.075692-11.441231-10.082462-10.436923 0.945231-40.900923-12.819692-46.454154l33.476923-86.843077L787.692308 393.846154l-11.027693 122.289231z" fill="#DFC49C" p-id="4926"></path><path d="M689.821538 549.612308l-73.452307 28.278154a9.846154 9.846154 0 0 1-12.740923-12.740924l28.297846-73.432615c26.387692 10.633846 47.261538 31.507692 57.895384 57.895385z" fill="#37474F" p-id="4927"></path><path d="M1102.769231 137.846154a249.245538 249.245538 0 0 1-44.701539 96.886154c0 0.196923 0 0.196923-0.196923 0.393846l-1.181538 1.181538-280.024616 279.827693-55.532307-55.532308-55.729231-55.729231L945.230769 124.849231l1.181539-1.181539c0.196923-0.196923 0.196923-0.196923 0.393846-0.196923C961.181538 109.686154 1002.732308 59.076923 1024 59.076923c21.661538 0 64.393846 5.513846 78.769231 19.692308s0 37.415385 0 59.076923z" fill="#FEC108" p-id="4928"></path><path d="M1057.28 124.258462L984.615385 196.923077l-64.59077 64.787692-198.892307 198.892308-55.729231-55.729231L945.230769 124.849231l1.181539-1.181539c0.196923-0.196923 0.196923-0.196923 0.393846-0.196923a78.769231 78.769231 0 0 1 110.473846 0.787693z" fill="#FFDC00" p-id="4929"></path><path d="M1138.806154 154.190769l-80.738462 80.541539a78.336 78.336 0 0 0 5.12-103.581539l55.926154-55.729231a79.281231 79.281231 0 0 0 19.692308-32.68923 78.926769 78.926769 0 0 1 0 111.458461z" fill="#BB193B" p-id="4930"></path><path d="M1138.806154 42.732308a79.281231 79.281231 0 0 1-19.692308 32.68923l-55.926154 55.729231a64.374154 64.374154 0 0 0-5.907692-6.892307 78.769231 78.769231 0 0 0-110.473846-0.787693l80.541538-80.738461c1.181538-1.181538 2.363077-2.166154 3.544616-3.15077a78.769231 78.769231 0 0 1 107.913846 3.15077z" fill="#EF314C" p-id="4931"></path><path d="M1063.187692 131.150769l-24.812307 24.812308a78.769231 78.769231 0 0 0 18.904615-31.704615c2.126769 2.166154 4.096 4.450462 5.907692 6.892307z" fill="#C81E1E" p-id="4932"></path><path d="M1122.461538 945.230769H59.076923a59.076923 59.076923 0 0 1-47.891692-93.617231L347.037538 437.169231a58.88 58.88 0 0 1 47.261539-23.630769h175.655385a19.692308 19.692308 0 0 1 0 39.384615H394.24a19.889231 19.889231 0 0 0-15.990154 8.270769L42.476308 875.52A19.692308 19.692308 0 0 0 59.076923 905.846154h1063.384615a19.692308 19.692308 0 0 0 16.226462-30.660923L872.900923 527.753846a19.692308 19.692308 0 1 1 31.232-23.985231l266.456615 348.376616A59.076923 59.076923 0 0 1 1122.461538 945.230769z" fill="#000000" p-id="4933"></path><path d="M787.692308 945.230769H393.846154a19.692308 19.692308 0 0 1-19.121231-24.438154l122.289231-492.307692A19.692308 19.692308 0 0 1 516.135385 413.538462h53.76a19.692308 19.692308 0 0 1 0 39.384615h-38.360616l-112.521846 452.923077h343.827692l-64.984615-277.661539a19.692308 19.692308 0 1 1 38.340923-8.940307l70.695385 301.843692A19.692308 19.692308 0 0 1 787.692308 945.230769zM915.889231 571.076923h-63.015385a19.692308 19.692308 0 0 1 0-39.384615h63.015385a19.692308 19.692308 0 0 1 0 39.384615z" fill="#000000" p-id="4934"></path><path d="M524.603077 571.076923H279.827692a19.692308 19.692308 0 0 1 0-39.384615h244.775385a19.692308 19.692308 0 0 1 0 39.384615zM1036.406154 728.615385H152.221538a19.692308 19.692308 0 0 1 0-39.384616h884.184616a19.692308 19.692308 0 0 1 0 39.384616zM776.743385 535.886769a19.554462 19.554462 0 0 1-13.922462-5.769846l-111.399385-111.399385a19.692308 19.692308 0 0 1 0-27.844923L1013.444923 28.829538a98.619077 98.619077 0 0 1 139.264 0 98.619077 98.619077 0 0 1 0 139.264L790.665846 530.116923a19.554462 19.554462 0 0 1-13.922461 5.769846zM693.169231 404.795077l83.574154 83.574154L1124.864 140.248615a59.096615 59.096615 0 0 0-83.574154-83.574153L693.169231 404.795077z" fill="#000000" p-id="4935"></path><path d="M595.712 605.518769a19.692308 19.692308 0 0 1-18.372923-26.761846l69.612308-180.972308a19.692308 19.692308 0 1 1 36.765538 14.139077l-53.720615 139.677539 139.677538-53.720616a19.692308 19.692308 0 1 1 14.139077 36.765539l-181.031385 69.553231a19.554462 19.554462 0 0 1-7.069538 1.319384z" fill="#000000" p-id="4936"></path><path d="M689.860923 569.324308a19.692308 19.692308 0 0 1-18.254769-12.268308 86.272 86.272 0 0 0-47.123692-47.025231 19.692308 19.692308 0 0 1 14.867692-36.489846 126.129231 126.129231 0 0 1 68.745846 68.745846 19.692308 19.692308 0 0 1-18.235077 27.037539zM433.230769 1024H78.769231a19.692308 19.692308 0 0 1 0-39.384615h354.461538a19.692308 19.692308 0 0 1 0 39.384615zM590.769231 1024h-59.076923a19.692308 19.692308 0 0 1 0-39.384615h59.076923a19.692308 19.692308 0 0 1 0 39.384615zM721.132308 480.295385a19.692308 19.692308 0 0 1-13.922462-33.61477l198.892308-198.892307A19.692308 19.692308 0 0 1 933.947077 275.692308l-198.892308 198.892307a19.692308 19.692308 0 0 1-13.922461 5.71077zM1056.689231 256a19.692308 19.692308 0 0 1-13.922462-33.614769l1.181539-1.181539a59.254154 59.254154 0 0 0-0.689231-83.12123A60.849231 60.849231 0 0 0 960.039385 137.846154a20.361846 20.361846 0 0 1-28.297847 0.157538 18.963692 18.963692 0 0 1-0.43323-27.096615l1.476923-1.476923a98.500923 98.500923 0 1 1 139.303384 139.303384l-1.476923 1.476924a19.692308 19.692308 0 0 1-13.922461 5.789538z" fill="#000000" p-id="4937"></path><path d="M984.615385 216.615385a19.692308 19.692308 0 0 1-13.922462-33.61477l72.664615-72.664615A19.692308 19.692308 0 1 1 1071.261538 138.180923l-72.664615 72.664615A19.692308 19.692308 0 0 1 984.615385 216.615385z" fill="#000000" p-id="4938"></path></svg>